<?xml version="1.0" encoding="UTF-8"?>
<svg width="565px" height="141px" viewBox="0 0 565 141" version="1.1" xmlns="http://www.w3.org/2000/svg" xmlns:xlink="http://www.w3.org/1999/xlink">
    <!-- Generator: Sketch 51.3 (57544) - http://www.bohemiancoding.com/sketch -->
    <title>Ali-logo-def_Tavola disegno 1</title>
    <desc>Created with Sketch.</desc>
    <defs></defs>
    <g id="Page-1" stroke="none" stroke-width="1" fill="none" fill-rule="evenodd">
        <g id="Ali-logo-def_Tavola-disegno-1" fill-rule="nonzero">
            <polygon id="Shape" fill="#41464C" points="0.64 134.5 0.64 111.81 5.12 111.81 5.12 134.5"></polygon>
            <path d="M12.29,129.31 C12.3428463,130.014529 12.6790528,130.667536 13.2218071,131.119831 C13.7645614,131.572127 14.4674914,131.785066 15.17,131.71 C16.57,131.71 17.24,130.98 17.24,130.15 C17.24,129.32 16.76,128.87 15.55,128.61 L13.47,128.13 C10.47,127.46 9.05,125.63 9.05,123.43 C9.05,120.61 11.55,118.27 14.94,118.27 C19.42,118.27 20.94,121.12 21.12,122.82 L17.56,123.62 C17.4131621,122.329888 16.2631604,121.393014 14.97,121.51 C13.85,121.51 12.97,122.18 12.97,123.07 C12.97,123.96 13.54,124.32 14.41,124.48 L16.65,124.96 C19.75,125.6 21.32,127.49 21.32,129.79 C21.32,132.35 19.32,134.98 15.21,134.98 C10.47,134.98 8.84,131.91 8.65,130.11 L12.29,129.31 Z" id="Shape" fill="#41464C"></path>
            <path d="M30,118.75 L33.17,118.75 L33.17,122.53 L30,122.53 L30,129.12 C30,130.5 30.64,130.95 31.86,130.95 C32.2999509,130.951319 32.738889,130.90776 33.17,130.82 L33.17,134.34 C32.4019198,134.619977 31.5870025,134.749006 30.77,134.72 C27.7,134.72 25.77,132.9 25.77,129.86 L25.77,122.53 L22.92,122.53 L22.92,118.75 L23.72,118.75 C24.3904042,118.804314 25.0501652,118.557201 25.5199309,118.075836 C25.9896966,117.594471 26.2206471,116.92888 26.15,116.26 L26.15,114.05 L30,114.05 L30,118.75 Z" id="Shape" fill="#41464C"></path>
            <path d="M38.88,111 C40.3217459,111.005598 41.4880511,112.174999 41.489826,113.616755 C41.491601,115.05851 40.3281786,116.23078 38.8864508,116.239928 C37.4447231,116.249075 36.2665195,115.091662 36.25,113.65 C36.2473428,112.949827 36.5229397,112.277276 37.0161615,111.780304 C37.5093832,111.283331 38.1798269,111.002647 38.88,111 Z M36.76,134.55 L36.76,118.75 L41,118.75 L41,134.5 L36.76,134.55 Z" id="Shape" fill="#41464C"></path>
            <path d="M50.81,118.75 L54,118.75 L54,122.53 L50.83,122.53 L50.83,129.12 C50.83,130.5 51.47,130.95 52.69,130.95 C53.1299777,130.951882 53.5689734,130.908318 54,130.82 L54,134.34 C53.2321745,134.62096 52.4170639,134.750019 51.6,134.72 C48.53,134.72 46.6,132.9 46.6,129.86 L46.6,122.53 L43.75,122.53 L43.75,118.75 L44.55,118.75 C45.2204042,118.804314 45.8801652,118.557201 46.3499309,118.075836 C46.8196966,117.594471 47.0506471,116.92888 46.98,116.26 L46.98,114.05 L50.82,114.05 L50.81,118.75 Z" id="Shape" fill="#41464C"></path>
            <path d="M67.87,132.8 C66.8790129,134.204216 65.2362723,135.00104 63.52,134.91 C59.71,134.91 57.52,132.13 57.52,128.71 L57.52,118.71 L61.78,118.71 L61.78,127.8 C61.78,129.56 62.67,130.97 64.66,130.97 C65.4888511,131.023853 66.2995142,130.710867 66.8771304,130.113997 C67.4547466,129.517127 67.740992,128.696641 67.66,127.87 L67.66,118.71 L71.92,118.71 L71.92,131.61 C71.9179668,132.5623 71.9713906,133.513911 72.08,134.46 L68,134.46 C67.9110968,133.911182 67.867616,133.355967 67.87,132.8 Z" id="Shape" fill="#41464C"></path>
            <path d="M81.69,118.75 L84.86,118.75 L84.86,122.53 L81.69,122.53 L81.69,129.12 C81.69,130.5 82.33,130.95 83.55,130.95 C83.9899777,130.951882 84.4289734,130.908318 84.86,130.82 L84.86,134.34 C84.0921745,134.62096 83.2770639,134.750019 82.46,134.72 C79.39,134.72 77.46,132.9 77.46,129.86 L77.46,122.53 L74.61,122.53 L74.61,118.75 L75.41,118.75 C76.0804042,118.804314 76.7401652,118.557201 77.2099309,118.075836 C77.6796966,117.594471 77.9106471,116.92888 77.84,116.26 L77.84,114.05 L81.68,114.05 L81.69,118.75 Z" id="Shape" fill="#41464C"></path>
            <path d="M103.64,126.62 C103.590405,131.171127 99.86858,134.824563 95.3173163,134.789753 C90.7660526,134.754943 87.1005453,131.045005 87.1205703,126.493652 C87.1405954,121.9423 90.8386062,118.26476 95.39,118.27 C97.6099043,118.222026 99.7517231,119.089707 101.312312,120.669212 C102.872902,122.248718 103.714716,124.400835 103.64,126.62 Z M99.39,126.62 C99.39,123.62 97.47,122.15 95.39,122.15 C93.31,122.15 91.39,123.65 91.39,126.62 C91.39,129.59 93.31,131.11 95.39,131.11 C97.47,131.11 99.39,129.6 99.39,126.62 Z" id="Shape" fill="#41464C"></path>
            <path d="M114.91,140.58 L114.91,118.75 L119,118.75 L119,120.67 C120.117382,119.133493 121.944163,118.276718 123.84,118.4 C128.44,118.4 131.1,121.92 131.1,126.59 C131.1,131.26 128.1,134.88 123.68,134.88 C121.945918,134.990374 120.260795,134.279289 119.13,132.96 L119.13,140.58 L114.91,140.58 Z M123,122.21 C120.83,122.21 119.07,123.84 119.07,126.62 C119.07,129.4 120.83,131.07 123,131.07 C125.17,131.07 126.91,129.44 126.91,126.62 C126.91,123.8 125.21,122.21 123,122.21 Z" id="Shape" fill="#41464C"></path>
            <path d="M148.6,130 C147.643899,133.116976 144.685337,135.180129 141.43,135 C139.212696,135.036338 137.079787,134.150672 135.540401,132.554412 C134.001014,130.958151 133.193278,128.794528 133.31,126.58 C133.31,121.58 137.02,118.29 141.05,118.29 C145.91,118.29 148.83,121.4 148.83,126.45 C148.83,127.06 148.76,127.7 148.76,127.77 L137.5,127.77 C137.628853,129.856947 139.411593,131.452499 141.5,131.35 C143.10574,131.477919 144.588377,130.483972 145.08,128.95 L148.6,130 Z M144.6,124.84 C144.588854,123.946115 144.199618,123.098775 143.528741,122.507946 C142.857864,121.917117 141.968127,121.638088 141.08,121.74 C139.269454,121.674163 137.723507,123.03565 137.56,124.84 L144.6,124.84 Z" id="Shape" fill="#41464C"></path>
            <path d="M161.79,123 C161.369041,122.912106 160.940035,122.868535 160.51,122.87 C158.33,122.87 156.44,123.93 156.44,127.32 L156.44,134.52 L152.19,134.52 L152.19,118.75 L156.31,118.75 L156.31,121.09 C157.184212,119.454979 158.941218,118.490194 160.79,118.63 C161.15,118.63 161.47,118.63 161.79,118.69 L161.79,123 Z" id="Shape" fill="#41464C"></path>
            <polygon id="Shape" fill="#41464C" points="172.6 134.5 172.6 111.33 176.86 111.33 176.86 134.5"></polygon>
            <path d="M185.05,125.44 L188.92,124.87 C189.82,124.74 190.11,124.29 190.11,123.75 C190.11,122.63 189.24,121.7 187.45,121.7 C185.91489,121.579241 184.572199,122.725004 184.45,124.26 L180.68,123.46 C180.93,120.99 183.2,118.27 187.43,118.27 C192.43,118.27 194.28,121.09 194.28,124.27 L194.28,132 C194.282573,132.83684 194.346075,133.672383 194.47,134.5 L190.56,134.5 C190.45384,133.875591 190.400319,133.243369 190.4,132.61 C189.372512,134.15065 187.609354,135.036029 185.76,134.94 C182.4,134.94 180.36,132.67 180.36,130.21 C180.35,127.39 182.43,125.83 185.05,125.44 Z M190.11,128.13 L190.11,127.43 L186.55,127.97 C185.465005,127.997133 184.599661,128.884666 184.6,129.97 C184.603866,130.484298 184.821652,130.973773 185.201094,131.320963 C185.580536,131.668153 186.087382,131.841716 186.6,131.8 C188.44,131.78 190.11,130.91 190.11,128.13 Z" id="Shape" fill="#41464C"></path>
            <path d="M205.43,123.17 C205.326198,120.046141 206.502834,117.015423 208.687319,114.77996 C210.871804,112.544497 213.874578,111.298275 217,111.33 C223.27,111.33 226.5,115.17 227.39,118.85 L223.23,120.16 C222.69,117.99 220.93,115.59 217,115.59 C213.6,115.59 210,118.02 210,123.17 C210,128 213.39,130.66 217,130.66 C219.946882,130.792421 222.592267,128.865484 223.37,126.02 L227.49,127.27 C226.63,130.75 223.37,134.98 217,134.98 C213.868615,135.049192 210.84829,133.819008 208.656377,131.581627 C206.464464,129.344246 205.296541,126.299304 205.43,123.17 Z" id="Shape" fill="#41464C"></path>
            <path d="M240.44,132.8 C239.449013,134.204216 237.806272,135.00104 236.09,134.91 C232.28,134.91 230.09,132.13 230.09,128.71 L230.09,118.71 L234.34,118.71 L234.34,127.8 C234.34,129.56 235.24,130.97 237.22,130.97 C238.0479,131.020354 238.85644,130.706265 239.433243,130.110235 C240.010046,129.514205 240.297464,128.695805 240.22,127.87 L240.22,118.71 L244.47,118.71 L244.47,131.61 C244.473043,132.562157 244.526451,133.513486 244.63,134.46 L240.57,134.46 C240.485903,133.910617 240.442451,133.355777 240.44,132.8 Z" id="Shape" fill="#41464C"></path>
            <polygon id="Shape" fill="#41464C" points="249 134.5 249 111.33 253.25 111.33 253.25 134.5"></polygon>
            <path d="M263.07,118.75 L266.23,118.75 L266.23,122.53 L263.07,122.53 L263.07,129.12 C263.07,130.5 263.71,130.95 264.92,130.95 C265.359978,130.951882 265.798973,130.908318 266.23,130.82 L266.23,134.34 C265.462174,134.62096 264.647064,134.750019 263.83,134.72 C260.76,134.72 258.83,132.9 258.83,129.86 L258.83,122.53 L256,122.53 L256,118.75 L256.8,118.75 C257.471125,118.803804 258.131506,118.556915 258.602733,118.076031 C259.07396,117.595148 259.307405,116.929895 259.24,116.26 L259.24,114.05 L263.08,114.05 L263.07,118.75 Z" id="Shape" fill="#41464C"></path>
            <path d="M280.12,132.8 C279.129013,134.204216 277.486272,135.00104 275.77,134.91 C271.96,134.91 269.77,132.13 269.77,128.71 L269.77,118.71 L274,118.71 L274,127.8 C274,129.56 274.9,130.97 276.88,130.97 C277.7079,131.020354 278.51644,130.706265 279.093243,130.110235 C279.670046,129.514205 279.957464,128.695805 279.88,127.87 L279.88,118.71 L284.13,118.71 L284.13,131.61 C284.133043,132.562157 284.186451,133.513486 284.29,134.46 L280.23,134.46 C280.147792,133.910628 280.111,133.355416 280.12,132.8 Z" id="Shape" fill="#41464C"></path>
            <path d="M298.3,123 C297.879041,122.912106 297.450035,122.868535 297.02,122.87 C294.84,122.87 292.95,123.93 292.95,127.32 L292.95,134.52 L288.7,134.52 L288.7,118.75 L292.82,118.75 L292.82,121.09 C293.694212,119.454979 295.451218,118.490194 297.3,118.63 C297.66,118.63 297.98,118.63 298.3,118.69 L298.3,123 Z" id="Shape" fill="#41464C"></path>
            <path d="M305.14,125.44 L309.02,124.87 C309.91,124.74 310.2,124.29 310.2,123.75 C310.2,122.63 309.34,121.7 307.54,121.7 C306.802175,121.639286 306.070608,121.875371 305.507457,122.355926 C304.944307,122.836482 304.596093,123.521809 304.54,124.26 L300.76,123.46 C301.02,120.99 303.29,118.27 307.51,118.27 C312.51,118.27 314.36,121.09 314.36,124.27 L314.36,132 C314.367574,132.836635 314.431049,133.671829 314.55,134.5 L310.65,134.5 C310.538874,133.876233 310.485315,133.243571 310.49,132.61 C309.461141,134.149098 307.698929,135.034002 305.85,134.94 C302.49,134.94 300.44,132.67 300.44,130.21 C300.44,127.39 302.52,125.83 305.14,125.44 Z M310.2,128.13 L310.2,127.43 L306.65,127.97 C305.565005,127.997133 304.699661,128.884666 304.7,129.97 C304.703866,130.484298 304.921652,130.973773 305.301094,131.320963 C305.680536,131.668153 306.187382,131.841716 306.7,131.8 C308.54,131.78 310.2,130.91 310.2,128.13 Z" id="Shape" fill="#41464C"></path>
            <path d="M341.56,131.65 C341.56,132.71 341.62,133.86 341.69,134.5 L337.62,134.5 C337.517353,133.895319 337.463845,133.283319 337.46,132.67 C336.492137,134.143591 334.809787,134.986674 333.05,134.88 C328.57,134.88 325.37,131.36 325.37,126.59 C325.37,121.99 328.47,118.37 332.92,118.37 C335.64,118.37 336.92,119.49 337.37,120.32 L337.37,111.32 L341.56,111.32 L341.56,131.65 Z M333.56,131.07 C335.74,131.07 337.43,129.41 337.43,126.56 C337.43,123.71 335.74,122.18 333.56,122.18 C331.38,122.18 329.66,123.78 329.66,126.59 C329.66,129.4 331.32,131.07 333.56,131.07 Z" id="Shape" fill="#41464C"></path>
            <path d="M360.28,130 C359.323899,133.116976 356.365337,135.180129 353.11,135 C348.669801,134.85493 345.116484,131.266176 345.015482,126.824756 C344.91448,122.383336 348.300986,118.636764 352.73,118.29 C357.59,118.29 360.5,121.4 360.5,126.45 C360.5,127.06 360.44,127.7 360.44,127.77 L349.18,127.77 C349.308853,129.856947 351.091593,131.452499 353.18,131.35 C354.788345,131.478994 356.27442,130.485518 356.77,128.95 L360.28,130 Z M356.28,124.84 C356.265754,123.947179 355.875619,123.101772 355.205508,122.511617 C354.535397,121.921462 353.647463,121.641297 352.76,121.74 C350.947627,121.669033 349.398649,123.03319 349.24,124.84 L356.28,124.84 Z" id="Shape" fill="#41464C"></path>
            <polygon id="Shape" fill="#41464C" points="363.86 134.5 363.86 111.33 368.12 111.33 368.12 134.5"></polygon>
            <polygon id="Shape" fill="#41464C" points="372.66 134.5 372.66 111.33 376.92 111.33 376.92 134.5"></polygon>
            <path d="M382.84,111.59 C383.628007,111.609249 384.373133,111.95287 384.899393,112.539706 C385.425652,113.126542 385.686381,113.904558 385.62,114.69 C385.62,118.98 382.68,120.55 380.62,120.74 L380.62,118.79 C382.010788,118.582198 383.089095,117.466991 383.25,116.07 C383.043782,116.179111 382.813268,116.23416 382.58,116.23 C381.952197,116.274139 381.335748,116.046054 380.887866,115.603915 C380.439985,115.161775 380.203965,114.548321 380.24,113.92 C380.26265,113.2615 380.552822,112.640705 381.043508,112.200975 C381.534194,111.761245 382.182965,111.540602 382.84,111.59 Z" id="Shape" fill="#41464C"></path>
            <polygon id="Shape" fill="#41464C" points="389.3 134.5 389.3 111.81 393.78 111.81 393.78 134.5"></polygon>
            <path d="M402.9,134.5 L398.65,134.5 L398.65,118.75 L402.77,118.75 L402.77,120.75 C403.76705,119.21779 405.492973,118.318793 407.32,118.38 C411.22,118.38 413.01,121.16 413.01,124.62 L413.01,134.54 L408.76,134.54 L408.76,125.35 C408.76,123.59 407.89,122.22 405.85,122.22 C405.007184,122.216828 404.201908,122.568333 403.631187,123.188516 C403.060467,123.808699 402.776949,124.64035 402.85,125.48 L402.9,134.5 Z" id="Shape" fill="#41464C"></path>
            <path d="M421.59,134.5 L417.33,134.5 L417.33,118.75 L421.46,118.75 L421.46,120.75 C422.45705,119.21779 424.182973,118.318793 426.01,118.38 C429.91,118.38 431.7,121.16 431.7,124.62 L431.7,134.54 L427.45,134.54 L427.45,125.35 C427.45,123.59 426.58,122.22 424.53,122.22 C423.697656,122.233507 422.908346,122.592254 422.350835,123.210447 C421.793325,123.828639 421.517744,124.650688 421.59,125.48 L421.59,134.5 Z" id="Shape" fill="#41464C"></path>
            <path d="M451.35,126.62 C451.300423,131.169827 447.58063,134.822745 443.030653,134.789783 C438.480676,134.756821 434.814198,131.050394 434.830544,126.500326 C434.84689,121.950259 438.539903,118.27027 443.09,118.27 C445.311621,118.219235 447.456083,119.085686 449.018879,120.66551 C450.581675,122.245334 451.424837,124.39906 451.35,126.62 Z M447.09,126.62 C447.09,123.62 445.17,122.15 443.09,122.15 C441.01,122.15 439.09,123.65 439.09,126.62 C439.09,129.59 441.01,131.11 443.09,131.11 C445.17,131.11 447.09,129.6 447.09,126.62 Z" id="Shape" fill="#41464C"></path>
            <polygon id="Shape" fill="#41464C" points="463 134.5 458.74 134.5 452.31 118.75 457 118.75 460.9 129.31 464.65 118.75 469.13 118.75"></polygon>
            <path d="M475.35,125.44 L479.22,124.87 C480.12,124.74 480.41,124.29 480.41,123.75 C480.41,122.63 479.54,121.7 477.75,121.7 C476.21489,121.579241 474.872199,122.725004 474.75,124.26 L470.98,123.46 C471.23,120.99 473.51,118.27 477.73,118.27 C482.73,118.27 484.58,121.09 484.58,124.27 L484.58,132 C484.582573,132.83684 484.646075,133.672383 484.77,134.5 L480.86,134.5 C480.75384,133.875591 480.700319,133.243369 480.7,132.61 C479.672512,134.15065 477.909354,135.036029 476.06,134.94 C472.7,134.94 470.66,132.67 470.66,130.21 C470.65,127.39 472.73,125.83 475.35,125.44 Z M480.41,128.13 L480.41,127.43 L476.85,127.97 C475.745431,127.97 474.85,128.865431 474.85,129.97 C474.852592,130.493869 475.07717,130.992078 475.467982,131.340949 C475.858794,131.689821 476.379195,131.856642 476.9,131.8 C478.74,131.78 480.41,130.91 480.41,128.13 Z" id="Shape" fill="#41464C"></path>
            <polygon id="Shape" fill="#41464C" points="487.77 134.5 487.77 130.75 495.22 122.43 488 122.43 488 118.75 500.7 118.75 500.7 122.31 493 130.79 500.81 130.79 500.81 134.5"></polygon>
            <path d="M506.36,111 C507.801746,111.005598 508.968051,112.174999 508.969826,113.616755 C508.971601,115.05851 507.808179,116.23078 506.366451,116.239928 C504.924723,116.249075 503.74652,115.091662 503.73,113.65 C503.727343,112.949827 504.00294,112.277276 504.496161,111.780304 C504.989383,111.283331 505.659827,111.002647 506.36,111 Z M504.25,134.55 L504.25,118.75 L508.5,118.75 L508.5,134.5 L504.25,134.55 Z" id="Shape" fill="#41464C"></path>
            <path d="M528.37,126.62 C528.320405,131.171127 524.59858,134.824563 520.047316,134.789753 C515.496053,134.754943 511.830545,131.045005 511.85057,126.493652 C511.870595,121.9423 515.568606,118.26476 520.12,118.27 C522.339904,118.222026 524.481723,119.089707 526.042312,120.669212 C527.602902,122.248718 528.444716,124.400835 528.37,126.62 Z M524.12,126.62 C524.12,123.62 522.2,122.15 520.12,122.15 C518.04,122.15 516.12,123.65 516.12,126.62 C516.12,129.59 518.04,131.11 520.12,131.11 C522.2,131.11 524.12,129.6 524.12,126.62 Z" id="Shape" fill="#41464C"></path>
            <path d="M536,134.5 L531.74,134.5 L531.74,118.75 L535.87,118.75 L535.87,120.75 C536.86705,119.21779 538.592973,118.318793 540.42,118.38 C544.32,118.38 546.11,121.16 546.11,124.62 L546.11,134.54 L541.85,134.54 L541.85,125.35 C541.85,123.59 540.99,122.22 538.94,122.22 C538.107656,122.233507 537.318346,122.592254 536.760835,123.210447 C536.203325,123.828639 535.927744,124.650688 536,125.48 L536,134.5 Z" id="Shape" fill="#41464C"></path>
            <path d="M564.53,130 C563.573899,133.116976 560.615337,135.180129 557.36,135 C555.142696,135.036338 553.009787,134.150672 551.470401,132.554412 C549.931014,130.958151 549.123278,128.794528 549.24,126.58 C549.24,121.58 552.95,118.29 556.98,118.29 C561.84,118.29 564.76,121.4 564.76,126.45 C564.76,127.06 564.69,127.7 564.69,127.77 L553.43,127.77 C553.569265,129.851885 555.345473,131.441592 557.43,131.35 C559.03574,131.477919 560.518377,130.483972 561.01,128.95 L564.53,130 Z M560.53,124.84 C560.518854,123.946115 560.129618,123.098775 559.458741,122.507946 C558.787864,121.917117 557.898127,121.638088 557.01,121.74 C555.199585,121.669342 553.653613,123.034731 553.5,124.84 L560.53,124.84 Z" id="Shape" fill="#41464C"></path>
            <circle id="Oval" fill="#8FD2EE" cx="319.84" cy="26.58" r="11.59" opacity="0.6"></circle>
            <circle id="Oval" fill="#D0D823" cx="332.16" cy="15.7" r="14.98" opacity="0.6"></circle>
            <path d="M563.43,99.63 L303.43,99.63 C302.877715,99.63 302.43,99.1822847 302.43,98.63 C302.49,90.86 302.6,81.43 302.84,80.63 L308.53,62.63 C311.833604,53.0158805 309.137909,42.3579572 301.660615,35.4706372 C294.183322,28.5833172 283.340236,26.7706962 274.029407,30.851573 C264.718578,34.9324499 258.702986,44.1341215 258.7,54.3 L258.7,56.69 C258.694122,57.2366309 258.606485,57.7793056 258.44,58.3 L253.66,73 C253.596888,73.2078357 253.633832,73.4331938 253.76,73.61 C253.886872,73.7872426 254.092035,73.8916891 254.31,73.89 L256.31,73.89 C258.145584,73.8995986 259.681718,75.2851319 259.88,77.11 L262.25,87.45 L262.25,87.59 C262.310669,88.3163943 262.673477,88.9839609 263.25,89.43 C263.806894,89.8938403 264.530517,90.107309 265.25,90.02 L272.69,89.24 C274.531715,89.0205896 276.211068,90.3134247 276.47,92.15 L277.39,98.51 C277.433238,98.7974199 277.349285,99.0894305 277.16,99.31 C276.968134,99.52842 276.690712,99.6525296 276.4,99.65 L2,99.65 C1.44771525,99.65 1,99.2022847 1,98.65 C1,98.0977153 1.44771525,97.65 2,97.65 L275.28,97.65 L274.52,92.44 C274.406398,91.6762364 273.706973,91.1406012 272.94,91.23 L265.5,92 C264.25898,92.1455536 263.011601,91.7855229 262.039013,91.0010561 C261.066424,90.2165893 260.450477,89.0737048 260.33,87.83 L258,77.47 C257.995183,77.4234576 257.995183,77.3765424 258,77.33 C257.932474,76.5068305 257.245931,75.8724296 256.42,75.87 L254.42,75.87 C253.561467,75.8705656 252.754632,75.4597817 252.250021,74.7651986 C251.745409,74.0706155 251.604111,73.176322 251.87,72.36 L256.65,57.66 C256.746905,57.335114 256.800699,56.9989027 256.81,56.66 L256.81,54.28 C256.830883,43.3288345 263.322206,33.4250965 273.355608,29.0365542 C283.38901,24.6480118 295.067812,26.6042599 303.123479,34.0227971 C311.179145,41.4413343 314.088862,52.9197858 310.54,63.28 L304.86,81.28 C304.72,82.08 304.6,91.36 304.55,97.66 L563.55,97.66 C564.102285,97.66 564.55,98.1077153 564.55,98.66 C564.55,99.2122847 564.102285,99.66 563.55,99.66 L563.43,99.63 Z" id="Shape" fill="#41464C"></path>
        </g>
    </g>
</svg>
